<svg width="35" height="37" viewBox="0 0 35 37" fill="none" xmlns="http://www.w3.org/2000/svg">
<path d="M14.5723 15.1787H20.0918C21.3234 15.1787 22.3242 14.8243 23.0939 14.1158C23.8638 13.4073 24.2487 12.4657 24.2487 11.2906V9.52795C24.2487 8.56027 23.8445 7.7913 23.0362 7.22103C22.5978 6.91171 22.0801 6.68643 21.4831 6.54491C22.2266 5.98966 22.8118 5.2591 23.1636 4.3964C23.7377 2.98842 23.5727 1.52224 22.8694 0.311523C25.2657 0.616081 27.2748 1.33812 28.8963 2.47765C31.1096 4.03278 32.2161 6.12367 32.2161 8.75031V11.3424C32.2161 12.4828 31.8986 13.5715 31.2635 14.6084C30.8132 15.3434 30.2323 15.983 29.5208 16.527L22.5466 21.0909C22.4796 21.0893 22.4119 21.0884 22.3433 21.0884H14.0615C15.6211 19.3919 15.8425 17.0588 14.5723 15.1787Z" fill="#F6543B"/>
<path d="M11.88 15.1787H20.0916C21.3232 15.1787 22.324 14.8243 23.0937 14.1158C23.8635 13.4073 24.2485 12.4657 24.2485 11.2906V9.52795C24.2485 8.56027 23.8443 7.7913 23.036 7.22103C22.5976 6.91171 22.0799 6.68643 21.4829 6.54491C22.2264 5.98966 22.8116 5.2591 23.1634 4.3964C23.7375 2.98842 23.5725 1.52224 22.8692 0.311523C25.2655 0.616081 27.2746 1.33812 28.8961 2.47765C31.1094 4.03278 32.2159 6.12367 32.2159 8.75031V11.3424C32.2159 12.4828 31.8984 13.5715 31.2633 14.6084C30.813 15.3434 30.2321 15.983 29.5206 16.527L22.5464 21.0909C22.4794 21.0893 22.4117 21.0884 22.3431 21.0884H11.7681C8.9311 21.171 8.6355 15.255 11.88 15.1787Z" fill="#FAC900"/>
<path d="M0 6.37907V0.144531H20.0919C21.0694 0.144531 21.9951 0.200128 22.8695 0.311323C25.4596 0.45963 24.876 6.9479 21.4832 6.54471C20.9796 6.42514 20.4195 6.36506 19.8032 6.3655L7.9682 6.37358L4.40748 10.4648L0 6.37907Z" fill="#F6543B"/>
<path d="M5.60034 36.4332C3.94574 36.4332 2.59801 35.9837 1.5589 35.0853C0.519795 34.1868 0 33.0116 0 31.5602V20.7158C2.2347 22.7654 5.82405 22.9523 7.9674 21.0882V30.2123H19.3627C17.8067 31.9668 17.6676 34.5536 19.2483 36.4332H5.60034Z" fill="#C75EEB"/>
<path d="M15.915 30.2117H21.4779C23.1716 30.2117 24.4802 29.9093 25.404 29.3045C26.3277 28.6998 26.7896 27.8443 26.7896 26.7384V24.4575C26.7896 23.4551 26.3852 22.6428 25.5772 22.0209C24.8101 21.4305 23.7999 21.1202 22.5472 21.0902C20.9901 17.7305 26.6466 15.9603 28.5794 17.1478V17.1997C30.427 17.7873 31.9185 18.7377 33.0539 20.051C34.1892 21.3641 34.7571 22.8332 34.7571 24.4575V27.1531C34.7571 29.9869 33.6119 32.2422 31.3218 33.9184C29.0317 35.5944 25.9426 36.4327 22.0553 36.4327H16.4422C16.9426 35.7491 17.2699 34.9651 17.3623 34.1463C17.5339 32.628 16.9504 31.2305 15.915 30.2117Z" fill="#4EBFE9"/>
<path d="M0 20.7161V6.22656C1.51451 7.58256 3.84539 8.13088 6.01688 7.41721C6.77052 7.16955 7.38826 6.86153 7.9674 6.36577C8.00937 6.39523 7.9251 6.34556 7.9674 6.37386V6.36577V15.1787H13.0105C14.2805 17.0589 14.0591 19.392 12.4995 21.0885H7.9674C5.82405 22.9525 2.2347 22.7656 0 20.7161Z" fill="#61E061"/>
<path fill-rule="evenodd" clip-rule="evenodd" d="M24.4342 14.4238C26.7738 14.4238 30.1997 15.9489 28.5788 17.1478C26.639 18.5825 25.0745 20.0727 22.048 21.0877C19.4515 20.8273 20.1982 19.1428 20.1982 17.8384C20.1982 15.9525 22.0947 14.4238 24.4342 14.4238Z" fill="#FAC900"/>
</svg>
